<?xml version="1.0" encoding="UTF-8"?>
<!DOCTYPE svg PUBLIC "-//W3C//DTD SVG 1.1//EN" "http://www.w3.org/Graphics/SVG/1.1/DTD/svg11.dtd">
<svg xmlns="http://www.w3.org/2000/svg" version="1.1" width="298px" height="38px" style="shape-rendering:geometricPrecision; text-rendering:geometricPrecision; image-rendering:optimizeQuality; fill-rule:evenodd; clip-rule:evenodd" xmlns:xlink="http://www.w3.org/1999/xlink">
<g><path style="opacity:1" fill="#fafafa" d="M -0.5,-0.5 C 98.8333,-0.5 198.167,-0.5 297.5,-0.5C 297.5,12.1667 297.5,24.8333 297.5,37.5C 198.167,37.5 98.8333,37.5 -0.5,37.5C -0.5,24.8333 -0.5,12.1667 -0.5,-0.5 Z"/></g>
<g><path style="opacity:1" fill="#020202" d="M 11.5,7.5 C 16.5111,7.33407 21.5111,7.50074 26.5,8C 29.1667,11 29.1667,14 26.5,17C 22.5138,17.4988 18.5138,17.6655 14.5,17.5C 14.5,19.8333 14.5,22.1667 14.5,24.5C 13.5,24.5 12.5,24.5 11.5,24.5C 11.5,18.8333 11.5,13.1667 11.5,7.5 Z"/></g>
<g><path style="opacity:1" fill="#0d0d0d" d="M 30.5,7.5 C 35.5111,7.33407 40.5111,7.50074 45.5,8C 49.2704,14.028 47.6037,17.3613 40.5,18C 41.9158,20.2645 43.9158,21.4312 46.5,21.5C 46.5,22.5 46.5,23.5 46.5,24.5C 44.8008,24.6602 43.1341,24.4935 41.5,24C 39.3171,21.6496 36.9837,19.483 34.5,17.5C 33.5258,19.7427 33.1924,22.076 33.5,24.5C 32.5,24.5 31.5,24.5 30.5,24.5C 30.5,18.8333 30.5,13.1667 30.5,7.5 Z"/></g>
<g><path style="opacity:1" fill="#121212" d="M 50.5,7.5 C 55.43,7.19749 60.2633,7.53082 65,8.5C 65.4994,13.8229 65.666,19.1563 65.5,24.5C 64.5,24.5 63.5,24.5 62.5,24.5C 62.5,22.1667 62.5,19.8333 62.5,17.5C 59.1667,17.5 55.8333,17.5 52.5,17.5C 52.5,19.8333 52.5,22.1667 52.5,24.5C 51.1667,24.5 49.8333,24.5 48.5,24.5C 48.3341,19.4889 48.5007,14.4889 49,9.5C 49.7172,8.9558 50.2172,8.28913 50.5,7.5 Z"/></g>
<g><path style="opacity:1" fill="#060606" d="M 67.5,7.5 C 72.5111,7.33407 77.5111,7.50074 82.5,8C 83.7595,10.2125 84.4262,12.7125 84.5,15.5C 84.3333,17.8333 84.1667,20.1667 84,22.5C 83.5,23 83,23.5 82.5,24C 77.5111,24.4993 72.5111,24.6659 67.5,24.5C 67.5,18.8333 67.5,13.1667 67.5,7.5 Z"/></g>
<g><path style="opacity:1" fill="#030303" d="M 89.5,7.5 C 89.5,9.83333 89.5,12.1667 89.5,14.5C 93.1667,14.5 96.8333,14.5 100.5,14.5C 100.5,12.1667 100.5,9.83333 100.5,7.5C 101.5,7.5 102.5,7.5 103.5,7.5C 103.5,13.1667 103.5,18.8333 103.5,24.5C 102.5,24.5 101.5,24.5 100.5,24.5C 100.5,22.1667 100.5,19.8333 100.5,17.5C 96.8333,17.5 93.1667,17.5 89.5,17.5C 89.5,19.8333 89.5,22.1667 89.5,24.5C 88.5,24.5 87.5,24.5 86.5,24.5C 86.5,18.8333 86.5,13.1667 86.5,7.5C 87.5,7.5 88.5,7.5 89.5,7.5 Z"/></g>
<g><path style="opacity:1" fill="#151515" d="M 105.5,7.5 C 106.5,7.5 107.5,7.5 108.5,7.5C 108.5,12.1667 108.5,16.8333 108.5,21.5C 111.833,21.5 115.167,21.5 118.5,21.5C 118.5,16.8333 118.5,12.1667 118.5,7.5C 119.833,7.5 121.167,7.5 122.5,7.5C 122.666,12.5111 122.499,17.5111 122,22.5C 121.5,23 121,23.5 120.5,24C 115.581,24.8015 110.748,24.6349 106,23.5C 105.501,18.1771 105.334,12.8437 105.5,7.5 Z"/></g>
<g><path style="opacity:1" fill="#141414" d="M 124.5,7.5 C 129.072,10.5633 133.239,14.23 137,18.5C 137.499,14.8484 137.665,11.1817 137.5,7.5C 138.5,7.5 139.5,7.5 140.5,7.5C 140.829,13.2055 140.495,18.8722 139.5,24.5C 135.833,21.1667 132.167,17.8333 128.5,14.5C 127.513,17.7683 127.18,21.1016 127.5,24.5C 126.167,24.5 124.833,24.5 123.5,24.5C 123.214,18.7414 123.548,13.0748 124.5,7.5 Z"/></g>
<g><path style="opacity:1" fill="#0e0e0e" d="M 152.5,7.5 C 153.5,7.5 154.5,7.5 155.5,7.5C 155.192,9.92397 155.526,12.2573 156.5,14.5C 158.984,12.517 161.317,10.3504 163.5,8C 165.134,7.50649 166.801,7.33982 168.5,7.5C 168.5,8.5 168.5,9.5 168.5,10.5C 165.213,11.264 162.546,13.0973 160.5,16C 162.546,18.9027 165.213,20.736 168.5,21.5C 168.5,22.5 168.5,23.5 168.5,24.5C 166.801,24.6602 165.134,24.4935 163.5,24C 161.317,21.6496 158.984,19.483 156.5,17.5C 155.526,19.7427 155.192,22.076 155.5,24.5C 154.5,24.5 153.5,24.5 152.5,24.5C 152.5,18.8333 152.5,13.1667 152.5,7.5 Z"/></g>
<g><path style="opacity:1" fill="#141414" d="M 170.5,7.5 C 175.844,7.33398 181.177,7.50065 186.5,8C 187.61,10.7372 187.777,13.5706 187,16.5C 185.266,17.2489 183.433,17.7489 181.5,18C 182.916,20.2645 184.916,21.4312 187.5,21.5C 187.5,22.5 187.5,23.5 187.5,24.5C 185.801,24.6602 184.134,24.4935 182.5,24C 180.317,21.6496 177.984,19.483 175.5,17.5C 174.526,19.7427 174.192,22.076 174.5,24.5C 173.167,24.5 171.833,24.5 170.5,24.5C 170.5,18.8333 170.5,13.1667 170.5,7.5 Z"/></g>
<g><path style="opacity:1" fill="#020202" d="M 206.5,10.5 C 204.167,10.5 201.833,10.5 199.5,10.5C 199.5,14.1667 199.5,17.8333 199.5,21.5C 201.833,21.5 204.167,21.5 206.5,21.5C 206.5,22.5 206.5,23.5 206.5,24.5C 200.833,24.5 195.167,24.5 189.5,24.5C 189.5,23.5 189.5,22.5 189.5,21.5C 191.833,21.5 194.167,21.5 196.5,21.5C 196.5,17.8333 196.5,14.1667 196.5,10.5C 194.167,10.5 191.833,10.5 189.5,10.5C 189.5,9.5 189.5,8.5 189.5,7.5C 195.167,7.5 200.833,7.5 206.5,7.5C 206.5,8.5 206.5,9.5 206.5,10.5 Z"/></g>
<g><path style="opacity:1" fill="#050505" d="M 225.5,10.5 C 220.833,10.5 216.167,10.5 211.5,10.5C 211.5,11.8333 211.5,13.1667 211.5,14.5C 215.167,14.5 218.833,14.5 222.5,14.5C 226.04,17.2548 226.373,20.4214 223.5,24C 218.511,24.4993 213.511,24.6659 208.5,24.5C 208.5,23.5 208.5,22.5 208.5,21.5C 213.167,21.5 217.833,21.5 222.5,21.5C 222.768,19.901 222.434,18.5676 221.5,17.5C 217.486,17.6655 213.486,17.4988 209.5,17C 207.964,13.76 208.297,10.76 210.5,8C 215.489,7.50074 220.489,7.33407 225.5,7.5C 225.5,8.5 225.5,9.5 225.5,10.5 Z"/></g>
<g><path style="opacity:1" fill="#141414" d="M 227.5,7.5 C 228.5,7.5 229.5,7.5 230.5,7.5C 230.5,9.83333 230.5,12.1667 230.5,14.5C 233.833,14.5 237.167,14.5 240.5,14.5C 240.5,12.1667 240.5,9.83333 240.5,7.5C 241.833,7.5 243.167,7.5 244.5,7.5C 244.5,13.1667 244.5,18.8333 244.5,24.5C 243.167,24.5 241.833,24.5 240.5,24.5C 240.5,22.1667 240.5,19.8333 240.5,17.5C 237.167,17.5 233.833,17.5 230.5,17.5C 230.5,19.8333 230.5,22.1667 230.5,24.5C 229.5,24.5 228.5,24.5 227.5,24.5C 227.5,18.8333 227.5,13.1667 227.5,7.5 Z"/></g>
<g><path style="opacity:1" fill="#141414" d="M 246.5,7.5 C 251.072,10.5633 255.239,14.23 259,18.5C 259.499,14.8484 259.665,11.1817 259.5,7.5C 260.5,7.5 261.5,7.5 262.5,7.5C 262.829,13.2055 262.495,18.8722 261.5,24.5C 257.833,21.1667 254.167,17.8333 250.5,14.5C 249.513,17.7683 249.18,21.1016 249.5,24.5C 248.167,24.5 246.833,24.5 245.5,24.5C 245.214,18.7414 245.548,13.0748 246.5,7.5 Z"/></g>
<g><path style="opacity:1" fill="#050505" d="M 266.5,7.5 C 271.233,7.22319 275.9,7.55652 280.5,8.5C 281.495,13.7921 281.828,19.1254 281.5,24.5C 280.5,24.5 279.5,24.5 278.5,24.5C 278.5,22.1667 278.5,19.8333 278.5,17.5C 274.833,17.5 271.167,17.5 267.5,17.5C 267.5,19.8333 267.5,22.1667 267.5,24.5C 266.5,24.5 265.5,24.5 264.5,24.5C 264.334,19.4889 264.501,14.4889 265,9.5C 265.717,8.9558 266.217,8.28913 266.5,7.5 Z"/></g>
<g><path style="opacity:1" fill="#a7a7a7" d="M 14.5,10.5 C 18.1667,10.5 21.8333,10.5 25.5,10.5C 25.5,11.8333 25.5,13.1667 25.5,14.5C 21.8333,14.5 18.1667,14.5 14.5,14.5C 14.5,13.1667 14.5,11.8333 14.5,10.5 Z"/></g>
<g><path style="opacity:1" fill="#afafaf" d="M 225.5,10.5 C 221.316,11.1664 216.982,11.8331 212.5,12.5C 215.977,13.1672 219.311,13.8339 222.5,14.5C 218.833,14.5 215.167,14.5 211.5,14.5C 211.5,13.1667 211.5,11.8333 211.5,10.5C 216.167,10.5 220.833,10.5 225.5,10.5 Z"/></g>
<g><path style="opacity:1" fill="#fefffe" d="M 15.5,11.5 C 18.5719,11.1826 21.5719,11.5159 24.5,12.5C 23,12.8333 21.5,13.1667 20,13.5C 18.0145,13.4313 16.5145,12.7647 15.5,11.5 Z"/></g>
<g><path style="opacity:1" fill="#e1e1e1" d="M 33.5,10.5 C 36.8333,10.5 40.1667,10.5 43.5,10.5C 43.5,11.8333 43.5,13.1667 43.5,14.5C 40.1667,14.5 36.8333,14.5 33.5,14.5C 33.5,13.1667 33.5,11.8333 33.5,10.5 Z"/></g>
<g><path style="opacity:1" fill="#e1e1e1" d="M 52.5,10.5 C 55.8333,10.5 59.1667,10.5 62.5,10.5C 62.5,11.8333 62.5,13.1667 62.5,14.5C 59.1667,14.5 55.8333,14.5 52.5,14.5C 52.5,13.1667 52.5,11.8333 52.5,10.5 Z"/></g>
<g><path style="opacity:1" fill="#e1e1e1" d="M 174.5,10.5 C 177.833,10.5 181.167,10.5 184.5,10.5C 184.5,11.8333 184.5,13.1667 184.5,14.5C 181.167,14.5 177.833,14.5 174.5,14.5C 174.5,13.1667 174.5,11.8333 174.5,10.5 Z"/></g>
<g><path style="opacity:1" fill="#a2a2a2" d="M 206.5,10.5 C 204.735,11.4614 202.735,11.7947 200.5,11.5C 200.5,14.5 200.5,17.5 200.5,20.5C 202.735,20.2053 204.735,20.5386 206.5,21.5C 204.167,21.5 201.833,21.5 199.5,21.5C 199.5,17.8333 199.5,14.1667 199.5,10.5C 201.833,10.5 204.167,10.5 206.5,10.5 Z"/></g>
<g><path style="opacity:1" fill="#b0b0b0" d="M 89.5,7.5 C 90.4614,9.26465 90.7947,11.2646 90.5,13.5C 93.5,13.5 96.5,13.5 99.5,13.5C 99.2053,11.2646 99.5386,9.26465 100.5,7.5C 100.5,9.83333 100.5,12.1667 100.5,14.5C 96.8333,14.5 93.1667,14.5 89.5,14.5C 89.5,12.1667 89.5,9.83333 89.5,7.5 Z"/></g>
<g><path style="opacity:1" fill="#b2b2b2" d="M 267.5,10.5 C 271.167,10.5 274.833,10.5 278.5,10.5C 278.5,11.8333 278.5,13.1667 278.5,14.5C 274.833,14.5 271.167,14.5 267.5,14.5C 267.5,13.1667 267.5,11.8333 267.5,10.5 Z"/></g>
<g><path style="opacity:1" fill="#fefffe" d="M 268.5,11.5 C 271.572,11.1826 274.572,11.5159 277.5,12.5C 276,12.8333 274.5,13.1667 273,13.5C 271.014,13.4313 269.514,12.7647 268.5,11.5 Z"/></g>
<g><path style="opacity:1" fill="#999999" d="M 70.5,10.5 C 74.1667,10.5 77.8333,10.5 81.5,10.5C 81.5,14.1667 81.5,17.8333 81.5,21.5C 77.8333,21.5 74.1667,21.5 70.5,21.5C 70.5,17.8333 70.5,14.1667 70.5,10.5 Z"/></g>
<g><path style="opacity:1" fill="#fefffe" d="M 71.5,11.5 C 74.5,11.5 77.5,11.5 80.5,11.5C 80.5,14.5 80.5,17.5 80.5,20.5C 77.5,20.5 74.5,20.5 71.5,20.5C 71.5,17.5 71.5,14.5 71.5,11.5 Z"/></g>
<g><path style="opacity:1" fill="#929292" d="M 221.5,17.5 C 222.434,18.5676 222.768,19.901 222.5,21.5C 217.833,21.5 213.167,21.5 208.5,21.5C 212.634,20.5151 216.968,20.1818 221.5,20.5C 221.5,19.5 221.5,18.5 221.5,17.5 Z"/></g>
</svg>
