<?xml version="1.0" encoding="UTF-8"?>
<!DOCTYPE svg PUBLIC "-//W3C//DTD SVG 1.1//EN" "http://www.w3.org/Graphics/SVG/1.1/DTD/svg11.dtd">
<svg xmlns="http://www.w3.org/2000/svg" version="1.1" width="291px" height="52px" style="shape-rendering:geometricPrecision; text-rendering:geometricPrecision; image-rendering:optimizeQuality; fill-rule:evenodd; clip-rule:evenodd" xmlns:xlink="http://www.w3.org/1999/xlink">
<g><path style="opacity:1" fill="#020202" d="M -0.5,-0.5 C 96.5,-0.5 193.5,-0.5 290.5,-0.5C 290.5,16.8333 290.5,34.1667 290.5,51.5C 193.5,51.5 96.5,51.5 -0.5,51.5C -0.5,34.1667 -0.5,16.8333 -0.5,-0.5 Z"/></g>
<g><path style="opacity:1" fill="#fbfbfb" d="M 24.5,24.5 C 20.8333,24.5 17.1667,24.5 13.5,24.5C 13.5,26.8333 13.5,29.1667 13.5,31.5C 12.5,31.5 11.5,31.5 10.5,31.5C 10.5,25.8333 10.5,20.1667 10.5,14.5C 15.5111,14.3341 20.5111,14.5007 25.5,15C 27.4782,17.4973 27.9782,20.3307 27,23.5C 26.3292,24.2524 25.4959,24.5858 24.5,24.5 Z"/></g>
<g><path style="opacity:1" fill="#f6f6f6" d="M 29.5,14.5 C 34.5111,14.3341 39.5111,14.5007 44.5,15C 48.2704,21.028 46.6037,24.3613 39.5,25C 41.0674,27.741 43.4007,28.9077 46.5,28.5C 46.5,29.5 46.5,30.5 46.5,31.5C 44.4727,31.6621 42.4727,31.4955 40.5,31C 38.3171,28.6496 35.9837,26.483 33.5,24.5C 32.5258,26.7427 32.1924,29.076 32.5,31.5C 31.5,31.5 30.5,31.5 29.5,31.5C 29.5,25.8333 29.5,20.1667 29.5,14.5 Z"/></g>
<g><path style="opacity:1" fill="#eaeaea" d="M 49.5,14.5 C 54.1785,14.3342 58.8452,14.5008 63.5,15C 64,15.5 64.5,16 65,16.5C 65.4993,21.4889 65.6659,26.4889 65.5,31.5C 64.1667,31.5 62.8333,31.5 61.5,31.5C 61.5,29.1667 61.5,26.8333 61.5,24.5C 58.1667,24.5 54.8333,24.5 51.5,24.5C 51.5,26.8333 51.5,29.1667 51.5,31.5C 50.1667,31.5 48.8333,31.5 47.5,31.5C 47.3341,26.4889 47.5007,21.4889 48,16.5C 48.7172,15.9558 49.2172,15.2891 49.5,14.5 Z"/></g>
<g><path style="opacity:1" fill="#f9f9f9" d="M 66.5,14.5 C 71.8437,14.334 77.1771,14.5006 82.5,15C 83.8333,20.3333 83.8333,25.6667 82.5,31C 77.1771,31.4994 71.8437,31.666 66.5,31.5C 66.5,25.8333 66.5,20.1667 66.5,14.5 Z"/></g>
<g><path style="opacity:1" fill="#fdfdfd" d="M 88.5,14.5 C 88.5,16.8333 88.5,19.1667 88.5,21.5C 92.1667,21.5 95.8333,21.5 99.5,21.5C 99.5,19.1667 99.5,16.8333 99.5,14.5C 100.5,14.5 101.5,14.5 102.5,14.5C 102.5,20.1667 102.5,25.8333 102.5,31.5C 101.5,31.5 100.5,31.5 99.5,31.5C 99.5,29.1667 99.5,26.8333 99.5,24.5C 95.8333,24.5 92.1667,24.5 88.5,24.5C 88.5,26.8333 88.5,29.1667 88.5,31.5C 87.5,31.5 86.5,31.5 85.5,31.5C 85.5,25.8333 85.5,20.1667 85.5,14.5C 86.5,14.5 87.5,14.5 88.5,14.5 Z"/></g>
<g><path style="opacity:1" fill="#e9e9e9" d="M 104.5,14.5 C 105.5,14.5 106.5,14.5 107.5,14.5C 107.5,18.8333 107.5,23.1667 107.5,27.5C 110.833,27.5 114.167,27.5 117.5,27.5C 117.5,23.1667 117.5,18.8333 117.5,14.5C 118.833,14.5 120.167,14.5 121.5,14.5C 121.666,19.5111 121.499,24.5111 121,29.5C 120.5,30 120,30.5 119.5,31C 114.581,31.8015 109.748,31.6349 105,30.5C 104.501,25.1771 104.334,19.8437 104.5,14.5 Z"/></g>
<g><path style="opacity:1" fill="#e2e2e2" d="M 123.5,14.5 C 128.072,17.5633 132.239,21.23 136,25.5C 136.499,21.8484 136.665,18.1817 136.5,14.5C 137.833,14.5 139.167,14.5 140.5,14.5C 143.835,34.0539 139.335,36.3872 127,21.5C 126.502,24.8168 126.335,28.1501 126.5,31.5C 125.167,31.5 123.833,31.5 122.5,31.5C 122.214,25.7414 122.548,20.0748 123.5,14.5 Z"/></g>
<g><path style="opacity:1" fill="#e6e6e6" d="M 150.5,14.5 C 151.833,14.5 153.167,14.5 154.5,14.5C 154.192,16.924 154.526,19.2573 155.5,21.5C 157.984,19.517 160.317,17.3504 162.5,15C 164.473,14.5045 166.473,14.3379 168.5,14.5C 168.5,15.5 168.5,16.5 168.5,17.5C 160.302,18.7859 158.969,22.2859 164.5,28C 165.793,28.49 167.127,28.6567 168.5,28.5C 168.5,29.5 168.5,30.5 168.5,31.5C 166.473,31.6621 164.473,31.4955 162.5,31C 160.317,28.6496 157.984,26.483 155.5,24.5C 154.526,26.7427 154.192,29.076 154.5,31.5C 153.167,31.5 151.833,31.5 150.5,31.5C 150.5,25.8333 150.5,20.1667 150.5,14.5 Z"/></g>
<g><path style="opacity:1" fill="#eeeeee" d="M 169.5,14.5 C 174.844,14.334 180.177,14.5006 185.5,15C 186.61,17.7372 186.777,20.5706 186,23.5C 179.043,24.6338 179.21,26.1338 186.5,28C 187.337,29.0113 187.67,30.1779 187.5,31.5C 185.473,31.6621 183.473,31.4955 181.5,31C 179.317,28.6496 176.984,26.483 174.5,24.5C 173.526,26.7427 173.192,29.076 173.5,31.5C 172.167,31.5 170.833,31.5 169.5,31.5C 169.5,25.8333 169.5,20.1667 169.5,14.5 Z"/></g>
<g><path style="opacity:1" fill="#fdfdfd" d="M 205.5,17.5 C 203.167,17.5 200.833,17.5 198.5,17.5C 198.5,21.1667 198.5,24.8333 198.5,28.5C 200.833,28.5 203.167,28.5 205.5,28.5C 205.5,29.5 205.5,30.5 205.5,31.5C 199.833,31.5 194.167,31.5 188.5,31.5C 188.5,30.5 188.5,29.5 188.5,28.5C 190.833,28.5 193.167,28.5 195.5,28.5C 195.5,24.8333 195.5,21.1667 195.5,17.5C 193.167,17.5 190.833,17.5 188.5,17.5C 188.5,16.5 188.5,15.5 188.5,14.5C 194.167,14.5 199.833,14.5 205.5,14.5C 205.5,15.5 205.5,16.5 205.5,17.5 Z"/></g>
<g><path style="opacity:1" fill="#fafafa" d="M 224.5,17.5 C 219.833,17.5 215.167,17.5 210.5,17.5C 210.5,18.8333 210.5,20.1667 210.5,21.5C 214.167,21.5 217.833,21.5 221.5,21.5C 223.95,21.8743 224.95,23.3743 224.5,26C 224.646,28.0342 223.98,29.7009 222.5,31C 217.511,31.4993 212.511,31.6659 207.5,31.5C 207.5,30.5 207.5,29.5 207.5,28.5C 212.167,28.5 216.833,28.5 221.5,28.5C 221.768,26.901 221.434,25.5676 220.5,24.5C 216.486,24.6655 212.486,24.4988 208.5,24C 207.39,21.2628 207.223,18.4294 208,15.5C 213.407,14.5268 218.907,14.1934 224.5,14.5C 224.5,15.5 224.5,16.5 224.5,17.5 Z"/></g>
<g><path style="opacity:1" fill="#f2f2f2" d="M 226.5,14.5 C 227.5,14.5 228.5,14.5 229.5,14.5C 229.5,16.8333 229.5,19.1667 229.5,21.5C 232.833,21.5 236.167,21.5 239.5,21.5C 239.5,19.1667 239.5,16.8333 239.5,14.5C 240.833,14.5 242.167,14.5 243.5,14.5C 243.5,20.1667 243.5,25.8333 243.5,31.5C 242.167,31.5 240.833,31.5 239.5,31.5C 239.5,29.1667 239.5,26.8333 239.5,24.5C 236.167,24.5 232.833,24.5 229.5,24.5C 229.5,26.8333 229.5,29.1667 229.5,31.5C 228.5,31.5 227.5,31.5 226.5,31.5C 226.5,25.8333 226.5,20.1667 226.5,14.5 Z"/></g>
<g><path style="opacity:1" fill="#e2e2e2" d="M 245.5,14.5 C 250.072,17.5633 254.239,21.23 258,25.5C 258.499,21.8484 258.665,18.1817 258.5,14.5C 259.833,14.5 261.167,14.5 262.5,14.5C 265.835,34.0539 261.335,36.3872 249,21.5C 248.502,24.8168 248.335,28.1501 248.5,31.5C 247.167,31.5 245.833,31.5 244.5,31.5C 244.214,25.7414 244.548,20.0748 245.5,14.5 Z"/></g>
<g><path style="opacity:1" fill="#fbfbfb" d="M 277.5,31.5 C 277.5,29.1667 277.5,26.8333 277.5,24.5C 273.833,24.5 270.167,24.5 266.5,24.5C 266.5,26.8333 266.5,29.1667 266.5,31.5C 265.5,31.5 264.5,31.5 263.5,31.5C 263.334,26.4889 263.501,21.4889 264,16.5C 264.5,16 265,15.5 265.5,15C 270.419,14.1985 275.252,14.3651 280,15.5C 280.499,20.8229 280.666,26.1563 280.5,31.5C 279.5,31.5 278.5,31.5 277.5,31.5 Z"/></g>
<g><path style="opacity:1" fill="#676767" d="M 13.5,17.5 C 17.1667,17.5 20.8333,17.5 24.5,17.5C 24.5,18.8333 24.5,20.1667 24.5,21.5C 20.8333,21.5 17.1667,21.5 13.5,21.5C 13.5,20.1667 13.5,18.8333 13.5,17.5 Z"/></g>
<g><path style="opacity:1" fill="#5f5f5f" d="M 224.5,17.5 C 220.316,18.1664 215.982,18.8331 211.5,19.5C 214.977,20.1672 218.311,20.8339 221.5,21.5C 217.833,21.5 214.167,21.5 210.5,21.5C 210.5,20.1667 210.5,18.8333 210.5,17.5C 215.167,17.5 219.833,17.5 224.5,17.5 Z"/></g>
<g><path style="opacity:1" fill="#000000" d="M 14.5,18.5 C 17.5719,18.1826 20.5719,18.5159 23.5,19.5C 22,19.8333 20.5,20.1667 19,20.5C 17.0145,20.4313 15.5145,19.7647 14.5,18.5 Z"/></g>
<g><path style="opacity:1" fill="#262626" d="M 32.5,17.5 C 35.8333,17.5 39.1667,17.5 42.5,17.5C 42.5,18.8333 42.5,20.1667 42.5,21.5C 39.1667,21.5 35.8333,21.5 32.5,21.5C 32.5,20.1667 32.5,18.8333 32.5,17.5 Z"/></g>
<g><path style="opacity:1" fill="#252525" d="M 51.5,17.5 C 54.8333,17.5 58.1667,17.5 61.5,17.5C 61.5,18.8333 61.5,20.1667 61.5,21.5C 58.1667,21.5 54.8333,21.5 51.5,21.5C 51.5,20.1667 51.5,18.8333 51.5,17.5 Z"/></g>
<g><path style="opacity:1" fill="#252525" d="M 173.5,17.5 C 176.833,17.5 180.167,17.5 183.5,17.5C 183.5,18.8333 183.5,20.1667 183.5,21.5C 180.167,21.5 176.833,21.5 173.5,21.5C 173.5,20.1667 173.5,18.8333 173.5,17.5 Z"/></g>
<g><path style="opacity:1" fill="#414141" d="M 188.5,17.5 C 190.833,17.5 193.167,17.5 195.5,17.5C 195.5,21.1667 195.5,24.8333 195.5,28.5C 193.167,28.5 190.833,28.5 188.5,28.5C 190.265,27.5386 192.265,27.2053 194.5,27.5C 194.5,24.5 194.5,21.5 194.5,18.5C 192.265,18.7947 190.265,18.4614 188.5,17.5 Z"/></g>
<g><path style="opacity:1" fill="#6d6d6d" d="M 205.5,17.5 C 203.735,18.4614 201.735,18.7947 199.5,18.5C 199.5,21.5 199.5,24.5 199.5,27.5C 201.735,27.2053 203.735,27.5386 205.5,28.5C 203.167,28.5 200.833,28.5 198.5,28.5C 198.5,24.8333 198.5,21.1667 198.5,17.5C 200.833,17.5 203.167,17.5 205.5,17.5 Z"/></g>
<g><path style="opacity:1" fill="#5d5d5d" d="M 88.5,14.5 C 89.4614,16.2646 89.7947,18.2646 89.5,20.5C 92.5,20.5 95.5,20.5 98.5,20.5C 98.2053,18.2646 98.5386,16.2646 99.5,14.5C 99.5,16.8333 99.5,19.1667 99.5,21.5C 95.8333,21.5 92.1667,21.5 88.5,21.5C 88.5,19.1667 88.5,16.8333 88.5,14.5 Z"/></g>
<g><path style="opacity:1" fill="#5b5b5b" d="M 266.5,17.5 C 270.167,17.5 273.833,17.5 277.5,17.5C 277.5,18.8333 277.5,20.1667 277.5,21.5C 273.833,21.5 270.167,21.5 266.5,21.5C 266.5,20.1667 266.5,18.8333 266.5,17.5 Z"/></g>
<g><path style="opacity:1" fill="#000000" d="M 267.5,18.5 C 270.572,18.1826 273.572,18.5159 276.5,19.5C 275,19.8333 273.5,20.1667 272,20.5C 270.014,20.4313 268.514,19.7647 267.5,18.5 Z"/></g>
<g><path style="opacity:1" fill="#414141" d="M 24.5,24.5 C 21.3752,25.4794 18.0419,25.8128 14.5,25.5C 14.7947,27.7354 14.4614,29.7354 13.5,31.5C 13.5,29.1667 13.5,26.8333 13.5,24.5C 17.1667,24.5 20.8333,24.5 24.5,24.5 Z"/></g>
<g><path style="opacity:1" fill="#535353" d="M 99.5,31.5 C 98.5386,29.7354 98.2053,27.7354 98.5,25.5C 95.5,25.5 92.5,25.5 89.5,25.5C 89.7947,27.7354 89.4614,29.7354 88.5,31.5C 88.5,29.1667 88.5,26.8333 88.5,24.5C 92.1667,24.5 95.8333,24.5 99.5,24.5C 99.5,26.8333 99.5,29.1667 99.5,31.5 Z"/></g>
<g><path style="opacity:1" fill="#535353" d="M 277.5,31.5 C 276.539,29.7354 276.205,27.7354 276.5,25.5C 273.5,25.5 270.5,25.5 267.5,25.5C 267.795,27.7354 267.461,29.7354 266.5,31.5C 266.5,29.1667 266.5,26.8333 266.5,24.5C 270.167,24.5 273.833,24.5 277.5,24.5C 277.5,26.8333 277.5,29.1667 277.5,31.5 Z"/></g>
<g><path style="opacity:1" fill="#767676" d="M 69.5,17.5 C 73.1667,17.5 76.8333,17.5 80.5,17.5C 80.5,21.1667 80.5,24.8333 80.5,28.5C 76.8333,28.5 73.1667,28.5 69.5,28.5C 69.5,24.8333 69.5,21.1667 69.5,17.5 Z"/></g>
<g><path style="opacity:1" fill="#000000" d="M 70.5,18.5 C 73.5,18.5 76.5,18.5 79.5,18.5C 79.5,21.5 79.5,24.5 79.5,27.5C 76.5,27.5 73.5,27.5 70.5,27.5C 70.5,24.5 70.5,21.5 70.5,18.5 Z"/></g>
<g><path style="opacity:1" fill="#7d7d7d" d="M 220.5,24.5 C 221.434,25.5676 221.768,26.901 221.5,28.5C 216.833,28.5 212.167,28.5 207.5,28.5C 211.634,27.5151 215.968,27.1818 220.5,27.5C 220.5,26.5 220.5,25.5 220.5,24.5 Z"/></g>
</svg>
